<?xml version="1.0" encoding="utf-8"?>
<!-- Generator: Adobe Illustrator 23.0.3, SVG Export Plug-In . SVG Version: 6.00 Build 0)  -->
<svg version="1.1" id="Слой_1" xmlns="http://www.w3.org/2000/svg" xmlns:xlink="http://www.w3.org/1999/xlink" x="0px" y="0px"
	 viewBox="0 0 425.2 161.3" style="enable-background:new 0 0 425.2 161.3;" xml:space="preserve">
<style type="text/css">
	.st0{fill:#ECBB80;}
	.st1{fill:#725334;}
	.st2{fill:#40A756;}
	.st3{fill:#A6CC84;}
	.st4{fill:#24533D;}
	.st5{fill:#BE242E;}
	.st6{opacity:0.85;fill:#DA7E57;enable-background:new    ;}
	.st7{fill:#672C2D;}
	.st8{fill:#F0CD62;}
	.st9{fill:#F4EF8A;}
	.st10{fill:#BA8335;}
	.st11{fill:#D04943;}
	.st12{fill:#703137;}
	.st13{fill:none;}
	.st14{fill:#FEF7DB;}
</style>
<g>
	<path d="M200.7,134.2c-0.7,0.6-1.4,1-2.4,1c-0.9,0-1.7-0.3-2.4-1s-1-1.4-1-2.4c0-0.9,0.3-1.7,1-2.4c0.6-0.6,1.4-1,2.4-1
		c0.9,0,1.7,0.3,2.4,1c0.6,0.7,1,1.4,1,2.4S201.4,133.5,200.7,134.2z"/>
	<path d="M232.5,104.1v30.4h-4V108h-12.4v26.5h-4V108h-5.2v-3.9h5.2v-1.2c0-7.8,4.3-11.7,12.8-11.7c1.7,0,3.7,0.2,5.8,0.7v3.7
		c-0.9-0.2-1.9-0.3-2.9-0.4s-2-0.1-3-0.1c-3,0-5.3,0.6-6.7,1.8c-1.4,1.2-2.1,3.2-2.1,6v1.2H232.5z"/>
	<path d="M255.3,103.4c3.7,0,6.6,1.1,8.7,3.4s3.2,5.3,3.2,9.1v18.7h-4v-18.7c0-2.7-0.7-4.8-2.1-6.3s-3.5-2.3-6.2-2.3
		c-2.9,0-5.3,0.9-7.1,2.7c-1.8,1.8-2.7,4.7-2.7,8.6v16h-4v-30.4h4v4.7C247.3,105.2,250.7,103.4,255.3,103.4z"/>
	<path d="M301.2,104.1h4v30.4h-4v-6c-2.8,4.5-6.9,6.7-12.3,6.7c-4.3,0-8.1-1.5-11.1-4.6c-3-3.1-4.6-6.9-4.6-11.3s1.5-8.2,4.6-11.3
		c3.1-3.1,6.8-4.6,11.1-4.6c5.4,0,9.5,2.2,12.3,6.7V104.1z M280.7,127.9c2.3,2.3,5.2,3.5,8.5,3.5c3.4,0,6.2-1.2,8.5-3.5
		c2.3-2.4,3.5-5.2,3.5-8.6s-1.2-6.2-3.5-8.5c-2.3-2.4-5.2-3.5-8.5-3.5c-3.4,0-6.2,1.2-8.5,3.5s-3.5,5.2-3.5,8.5
		C277.2,122.7,278.4,125.6,280.7,127.9z"/>
	<path d="M328,103.4c3.7,0,6.6,1.1,8.7,3.4s3.2,5.3,3.2,9.1v18.7h-4v-18.7c0-2.7-0.7-4.8-2.1-6.3s-3.5-2.3-6.2-2.3
		c-2.9,0-5.3,0.9-7.1,2.7c-1.8,1.8-2.7,4.7-2.7,8.6v16h-4v-30.4h4v4.7C320,105.2,323.4,103.4,328,103.4z"/>
	<path d="M361.9,135.3c-4.6,0-8.4-1.5-11.4-4.6c-3-3.1-4.6-6.9-4.6-11.4s1.5-8.3,4.6-11.3c3-3.1,6.9-4.6,11.4-4.6
		c3,0,5.8,0.7,8.1,2.2s4.1,3.4,5.2,5.8l-3.3,1.9c-0.8-1.8-2.1-3.3-3.9-4.4s-3.8-1.6-6.2-1.6c-3.4,0-6.2,1.2-8.5,3.5
		s-3.5,5.2-3.5,8.5c0,3.4,1.2,6.2,3.5,8.6c2.3,2.3,5.2,3.5,8.5,3.5c2.3,0,4.4-0.5,6.1-1.6c1.8-1.1,3.2-2.5,4.2-4.4l3.4,1.9
		c-1.3,2.4-3.1,4.4-5.5,5.8C367.6,134.6,364.9,135.3,361.9,135.3z"/>
	<path d="M395.1,103.4c4.5,0,8.2,1.6,10.9,4.8c2.8,3.2,4.2,6.9,4.2,11.3c0,0.2,0,0.5,0,0.8s0,0.7-0.1,1.1h-26.7
		c0.4,3.1,1.7,5.5,3.9,7.3c2.2,1.8,4.9,2.7,8.2,2.7c2.3,0,4.3-0.5,6-1.4c1.7-1,3-2.2,3.8-3.7l3.5,2.1c-1.3,2.2-3.2,3.9-5.5,5.1
		s-5,1.9-7.9,1.9c-4.8,0-8.7-1.5-11.7-4.5s-4.5-6.8-4.5-11.4s1.5-8.4,4.4-11.4C386.6,104.9,390.4,103.4,395.1,103.4z M395.1,107.3
		c-1.6,0-3,0.2-4.4,0.7c-1.3,0.5-2.5,1.2-3.6,2.1c-1,0.9-1.9,2-2.5,3.2c-0.6,1.3-1.1,2.6-1.3,4.1H406c-0.4-3.2-1.7-5.7-3.7-7.5
		C400.3,108.2,397.8,107.3,395.1,107.3z"/>
</g>
<g>
	<path d="M220.5,56.7c3.7,2.2,5.6,5.6,5.6,10c0,4-1.4,7.2-4.1,9.5c-2.8,2.4-6.4,3.6-10.9,3.6h-18.8V35.1h17.6c2.2,0,4.2,0.3,6.1,0.9
		c1.8,0.6,3.4,1.4,4.7,2.5s2.3,2.4,3,4s1.1,3.3,1.1,5.3C224.7,51.5,223.3,54.5,220.5,56.7z M203.7,45.3v7h5.9c1,0,1.9-0.3,2.6-0.9
		c0.7-0.6,1.1-1.5,1.1-2.6s-0.3-1.9-1-2.6c-0.7-0.6-1.6-1-2.6-1L203.7,45.3L203.7,45.3z M210.8,69.6c1.2,0,2.1-0.3,2.8-1.1
		c0.7-0.7,1.1-1.6,1.1-2.7s-0.4-2.1-1.1-2.7c-0.7-0.7-1.7-1-2.8-1h-7.1v7.5C203.7,69.6,210.8,69.6,210.8,69.6z"/>
	<path d="M239.9,43.5c-0.6,0.6-1.3,1-2,1.3c-0.8,0.3-1.5,0.4-2.3,0.4s-1.5-0.1-2.3-0.4c-0.7-0.3-1.4-0.7-2.1-1.3
		c-0.6-0.6-1-1.3-1.3-2.1c-0.3-0.7-0.5-1.5-0.5-2.3s0.2-1.5,0.5-2.3c0.3-0.7,0.7-1.4,1.3-2s1.3-1,2.1-1.3c0.7-0.3,1.5-0.4,2.3-0.4
		s1.5,0.1,2.3,0.4c0.7,0.3,1.4,0.7,2,1.3s1.1,1.3,1.4,2c0.3,0.7,0.4,1.5,0.4,2.3s-0.1,1.5-0.4,2.3C241,42.1,240.5,42.8,239.9,43.5z
		 M230.3,79.8V47.9h10.6v31.9H230.3z"/>
	<path d="M269.8,47.9h10.5v30.6c0,2.6-0.5,4.9-1.4,6.8c-1,1.9-2.2,3.4-3.8,4.7c-1.6,1.2-3.4,2.1-5.4,2.7s-4.1,0.9-6.2,0.9
		c-3.6,0-6.7-0.7-9.5-2c-2.7-1.3-4.8-3.3-6.2-5.8l8.8-5.1c1.5,2.4,3.8,3.6,6.8,3.6c1.9,0,3.5-0.5,4.7-1.4c1.2-1,1.8-2.4,1.8-4.3
		v-3.1c-2.2,2.6-5.2,4-8.9,4c-4.4,0-8-1.6-10.9-4.7s-4.3-6.9-4.3-11.5s1.4-8.4,4.3-11.5c2.9-3.1,6.5-4.7,10.9-4.7
		c3.8,0,6.8,1.3,8.9,4v-3.2H269.8z M258.1,68c1.3,1.2,3,1.9,4.9,1.9c2,0,3.6-0.6,4.9-1.9s1.9-2.9,1.9-4.8s-0.6-3.5-1.9-4.7
		c-1.2-1.3-2.9-1.9-4.9-1.9s-3.6,0.6-4.9,1.9c-1.2,1.2-1.9,2.8-1.9,4.7C256.2,65,256.9,66.6,258.1,68z"/>
	<path d="M323,47c3.7,0,6.7,1.2,8.8,3.5c2.1,2.4,3.2,5.6,3.2,9.7v19.5h-10.6V61.4c0-3-1.3-4.5-4-4.5c-1.4,0-2.5,0.5-3.3,1.4
		c-0.7,1-1.1,2.3-1.1,3.9v17.4h-10.6V61.4c0-3-1.3-4.5-4-4.5c-1.4,0-2.5,0.5-3.3,1.4c-0.7,1-1.1,2.3-1.1,3.9v17.4h-10.6V47.9H297v3
		c2-2.6,4.8-3.9,8.6-3.9c3.7,0,6.4,1.4,8.2,4.1C316,48.3,319,47,323,47z"/>
	<path d="M363.2,47.9h10.6v31.9h-10.6v-2.9c-2.2,2.6-5.2,3.8-9.1,3.8c-4.3,0-7.9-1.6-10.7-4.8c-2.8-3.2-4.3-7.3-4.3-12.1
		c0-4.9,1.4-8.8,4.3-12s6.4-4.9,10.7-4.9c3.9,0,6.9,1.3,9.1,3.8V47.9z M351.6,68.9c1.2,1.3,2.8,1.9,4.9,1.9c2,0,3.6-0.6,4.9-1.9
		c1.2-1.3,1.9-3,1.9-5c0-2-0.6-3.7-1.9-5c-1.2-1.3-2.9-1.9-4.9-1.9c-2.1,0-3.7,0.6-4.9,1.9c-1.2,1.3-1.9,3-1.9,5
		C349.7,65.9,350.4,67.5,351.6,68.9z"/>
	<path d="M395.2,80.7c-4.8,0-8.9-1.6-12.1-4.9c-3.2-3.2-4.8-7.2-4.8-12c0-4.8,1.6-8.8,4.8-12c3.2-3.2,7.2-4.9,12.1-4.9
		c3.2,0,6.1,0.7,8.6,2.2c2.6,1.5,4.5,3.5,5.9,6l-9.1,5.2c-1.2-2.1-3-3.1-5.6-3.1c-1.8,0-3.3,0.6-4.5,1.8s-1.8,2.8-1.8,4.7
		c0,1.9,0.6,3.5,1.8,4.7c1.2,1.2,2.7,1.8,4.5,1.8c2.6,0,4.4-1.1,5.6-3.2l9.1,5.2c-1.4,2.6-3.4,4.6-5.9,6.1
		C401.3,79.9,398.4,80.7,395.2,80.7z"/>
</g>
<g>
	<g>
		<path class="st0" d="M149,119.8H30.2c-2.7,0-3.8,0.2-3.1,3.1c3.8,12.8,16.7,16.8,24.2,17.5c8,0.8,38.3,1.4,38.3,1.4
			s30.9-0.9,38.9-1.7c7.5-0.7,19.7-4.3,23.4-17.1C152.8,120.1,151.7,119.8,149,119.8z"/>
		<g>
			<g>
				<path class="st0" d="M149.4,119.3h-3.9c0,0-7.3,16.4-24.2,17.5c-8.1,0.5-22.4,1.2-34.9,1.2h-0.2c-12.5,0-30.1-0.5-38.1-1.2
					c-4.6-0.4-11.4-2.3-16.8-6.5c5.5,7,14.7,9.7,20.5,10.3c8,0.8,25.7,1.2,38.1,1.2h0.2c12.5,0,30.1-0.5,38.1-1.2
					c7.5-0.7,20.5-5,24.2-17.4C153.2,120.4,152.1,119.3,149.4,119.3z"/>
			</g>
		</g>
		<path class="st0" d="M32.3,119.2h-1.7c-1.3-0.6-4.7,0.9-4,3.7c3.8,12.4,17.7,16.9,25.2,17.6c2.3,0.2,5.4,0.4,8.9,0.6
			c-22.9-2.8-28.2-13.6-29.9-17.3C29.2,120.2,30.6,119.4,32.3,119.2z"/>
		<path class="st1" d="M153.6,118.3c-1.4-1.8-3.8-0.8-4.5-0.8H30.8c-1.4,0-4.2-0.4-5.2,0.8c-1,1.2-1.1,2.3-0.6,4.4
			c3.8,13,16.4,18.6,26.1,19.5c8.1,0.8,25.9,1.2,38.3,1.2h0.2c12.5,0,30.2-0.6,38.3-1.4c9.7-1,22.3-6.2,26.1-19.1
			C154.7,120.6,154.5,119.5,153.6,118.3z M89.6,141C77,141,77,141,89.6,141L89.6,141c-12.6,0-30.2-0.6-38.2-1.4
			c-7.5-0.7-20.5-4-24.2-16.9c-0.7-2.9,0.4-2.9,3.1-2.9H149c2.7,0,3.8,0,3.1,2.9c-3.8,12.8-16.7,16.7-24.2,17.5
			C119.8,141,102.2,141,89.6,141L89.6,141z"/>
	</g>
	<g>
		<path class="st2" d="M31,109.3c-2,2.1-4.4,2-7.4,3.1s-7.2,3.2,1.7,4.5s12.3,2,16.8,6.2c4.6,4.2,6.7,5.6,13.1,2
			c6.3-3.6,9-5,14.5-2.6s10.5,1.9,11.6,0s3-5.6-2-7.6s-6.6-5.6-6.6-5.6H31z"/>
		<path class="st3" d="M23.7,112.4c-3,1.1-7.2,3.2,1.7,4.5s12.3,2,16.8,6.2c1.1,1,2,1.8,2.9,2.4c1.4,0.5,2.9,0.9,4.3,0.7
			c0,0-2.6-0.4-4.8-3.2c-5.1-5.9-7.9-7-16.4-8.1c-3.7-0.5-1.2-1.4,0.8-1.7c2-0.2,3.4-1.5,4.1-3.7c0,0-0.1-0.1-0.4-0.3H31
			C29,111.5,26.7,111.4,23.7,112.4z"/>
		<path class="st2" d="M55.4,112.9c-2,1.6-1.3,5.8,6.7,6.6c7.9,0.8,17.1,1.4,13.8,4.4c5.3,0.1,6.2-1.5,6.2-1.5s-1.4-3.8-10.2-4.2
			C63.1,117.9,53.8,117.3,55.4,112.9z"/>
		<path class="st2" d="M153.1,109.3c7.4,2.1,12,6.4,3.5,8.3c-8.5,2-8.5,1.2-11.9,6s-9.7,7-14.1,4.3c-4.4-2.7-4.6-5.3-9.9-4.6
			c-5.3,0.7-21.1-3-12.6-8.5s17-5.5,17-5.5S153.1,109.3,153.1,109.3z"/>
		<path class="st2" d="M64.7,109.3c-7.2,1-15,6.9-1.7,7.9s17.8,2.1,19.7,6.2c2,4,5.3,6.5,11.6,3.2c4.9-2.6,5.7-2.5,9.1,0.1
			c3.3,2.6,9.2,3.2,13-0.8c3.9-4,3.7-3.5,10.2-2.6c6.5,0.8,12.9-1.4,12.8-6.2c-0.1-4.8,2-7.7,2-7.7L64.7,109.3L64.7,109.3z"/>
		<path class="st2" d="M141.7,108.8c0,0-0.7,1.3-0.9,1.6c-0.1,0.1-0.4,1.1-0.9,2.4c-0.3,1.2-0.5,2.5-0.5,4.2c0.1,2.1-1.1,3.7-3,4.7
			c-2.7,2.4-11,1.6-11,1.6s0.4-0.1,2.1,2.2c3.8,2.4,7.5,1.4,10.5-0.2s3.9-4.4,3.9-8.8c0-4.3,0.1-3.9,1.5-7.3L141.7,108.8z"/>
		<path class="st2" d="M70.2,113.5c4.5,0.7,11.2-1.6,14.2,1.4C81.4,114.6,73.8,117,70.2,113.5z"/>
		<path class="st3" d="M158.1,112.4c0.8,1.2,1.2,3.3-4.5,4c-7.7,1-9.3,3.5-11.2,6.2c-1.9,2.8-7.5,5.5-10.1,4.9c1,1,5.7,3.3,10.1-1
			c4.3-4.3,4.3-7.9,7.9-7.9s8.5-0.7,10.2-2.4C162.2,114.5,158.1,112.4,158.1,112.4z"/>
		<g>
			<path class="st4" d="M49.3,128.3c-2.9,0-5-1.7-7.8-4.3c-4.4-4-7.6-4.6-16.3-5.9c-4.3-0.6-6.1-1.5-6.3-3c-0.1-1.4,1.2-2.5,4.4-3.6
				c0.9-0.3,1.8-0.6,2.7-0.8c1.8-0.5,3.1-0.8,4.3-2c0.2-0.2,0.5-0.3,0.8-0.3h36.2c0.6,0,1.1,0.5,1.1,1.1s-0.5,1.1-1.1,1.1H31.5
				c-1.5,1.4-3.2,1.9-5,2.3c-0.8,0.2-1.6,0.4-2.5,0.7c-1.7,0.6-2.5,1.1-2.8,1.4c0.4,0.2,1.5,0.7,4.3,1.1c8.7,1.3,12.5,2,17.4,6.5
				c4.4,4,6.1,5.1,11.8,1.9c6.2-3.5,9.3-5.3,15.5-2.6c5.5,2.3,9.6,1.5,10.2,0.5c0.1-0.3,0.2-0.3,0.2-0.5c0.3-0.5,0.9-0.8,1.4-0.5
				s0.8,0.9,0.5,1.4l-0.1,0.2c0,0.1-0.1,0.2-0.2,0.4c-1.5,2.7-7.2,2.9-12.9,0.5c-4.9-2.1-7.2-1.1-13.6,2.5
				C53.1,127.6,51.1,128.3,49.3,128.3z"/>
		</g>
		<g>
			<path class="st4" d="M135,130.2c-1.7,0-3.4-0.4-4.9-1.3s-2.5-1.8-3.4-2.5c-1.8-1.5-2.7-2.3-5.9-1.9c-0.9,0.1-1.7,0.2-2.4,1
				c-0.4,0.4-1.1,0.5-1.5,0c-0.4-0.4-0.5-1.1,0-1.5c1.3-1.3,2.7-1.5,3.6-1.6c4.3-0.6,5.8,0.8,7.7,2.4c0.8,0.7,1.8,1.5,3.1,2.3
				c3.8,2.3,9.5,0.5,12.7-4c3-4.2,3.6-4.5,9-5.6c1-0.2,2.1-0.5,3.5-0.8c2.9-0.7,3.7-1.5,3.7-1.9c0-0.9-2.2-2.8-7.2-4.3h-27.8
				c-0.6,0-1.1-0.5-1.1-1.1s0.5-1.1,1.1-1.1h28c0.1,0,0.2,0,0.3,0c2.1,0.6,9,2.9,8.9,6.4c0,1.8-1.9,3.2-5.4,4
				c-1.4,0.3-2.6,0.6-3.5,0.8c-5,1.1-5.1,1.1-7.7,4.7C143,128,138.8,130.2,135,130.2z"/>
		</g>
		<path class="st2" d="M109.9,121.3c-4.5,1.1-7.1,4.5-7.1,4.5c-4-2-3.5-2.3-3.5-2.3S106.1,118.7,109.9,121.3z"/>
		<path class="st3" d="M104.1,125.9c2.9,1.3,6.8,1.6,9.7-1.4c2.9-3,4.1-5.4,10.9-4.3s13.2-0.4,14.3-5.4c0.4,4.6-1.2,7.9-7,8.5
			c-5.8,0.5-10.2-1.4-12.3,0.3C117.4,125.1,110.9,133.2,104.1,125.9z"/>
		<path class="st3" d="M58.3,112.6c-1,1.2-0.9,2.4,4.9,2.8s16.6,0.8,19.9,4.2c3.3,3.4,4.7,8.5,10.1,5.5c5.4-3,7.8-3.2,7.8-3.2
			s-4.3,4.1-9,5c-4.6,0.9-7.4-1-9.8-4.2s-6.8-4.5-9.3-4.6s-13.5-1-15.8-2.4C54.7,114.3,58.3,112.6,58.3,112.6z"/>
		<g>
			<path class="st4" d="M109.6,129.9c-2.5,0-5-0.8-6.9-2.3c-1.5-1.2-2.4-1.8-3.3-1.8c-1,0-2.4,0.6-4.6,1.8
				c-5.9,3.1-10.4,1.8-13.1-3.7c-1.7-3.4-5.7-4.7-18.9-5.6c-5.5-0.4-8.1-1.7-8.2-3.9c-0.1-3.1,5.8-5.6,9.9-6.1h78.8l-1.2,1.7
				c0,0-1.9,2.8-1.8,7.1c0,1.6-0.6,3.1-1.7,4.3c-2,2-5.4,3.2-9.5,3.2l0,0c-0.9,0-1.8-0.1-2.8-0.2c-0.8-0.1-1.5-0.2-2.1-0.3
				c-1.3-0.2-2.2-0.3-2.9-0.3c-1.3,0-1.9,0.4-4.3,2.9C115.2,128.7,112.5,129.9,109.6,129.9z M99.4,123.6c1.7,0,3,0.9,4.7,2.2
				c1.5,1.2,3.5,1.9,5.5,1.9c1.6,0,4-0.4,6-2.6c2.3-2.5,3.5-3.6,5.8-3.6c0.9,0,1.9,0.1,3.2,0.3c0.6,0.1,1.3,0.2,2,0.3
				c4.3,0.6,8.6-0.4,10.5-2.4c0.8-0.8,1.1-1.7,1.1-2.7c-0.1-2.9,0.6-5.2,1.3-6.7H64.7c-4.5,0.6-7.9,3-7.9,3.9c0,0.3,1.2,1.4,6.2,1.8
				c13.2,0.9,18.3,2.1,20.6,6.8c2.2,4.5,5.3,5.2,10.1,2.7C96.4,124.3,97.9,123.6,99.4,123.6z"/>
		</g>
		<g>
			<path class="st4" d="M94.5,127.6c-0.4,0-0.8-0.2-1-0.6c-0.3-0.5,0-1.2,0.5-1.4c1.1-0.5,2.3-1.4,3.6-2.2c3.5-2.4,7.4-5.1,11.9-3.6
				c0.6,0.2,0.9,0.8,0.7,1.4c-0.2,0.6-0.8,0.9-1.4,0.7c-3.5-1.1-6.8,1.1-10,3.4c-1.3,0.9-2.6,1.8-3.9,2.4
				C94.8,127.6,94.6,127.6,94.5,127.6z"/>
		</g>
		<g>
			<g>
				<path class="st2" d="M118.7,109.3H75.6c7,3.6,13.5,7.8,19.1,12.5c2.3,1.9,4.9,1.9,9-1.9C107.5,116.5,112.8,112.8,118.7,109.3z"
					/>
			</g>
		</g>
	</g>
	<g>
		<g>
			<path class="st5" d="M31.2,109.6c-5.6,0-10.2-4.6-10.2-10.2v-2.7c0-5.6,4.6-10.2,10.2-10.2h117.7c5.6,0,10.2,4.6,10.2,10.2v2.7
				c0,5.6-4.6,10.2-10.2,10.2H31.2z"/>
			<path class="st5" d="M152.5,87.5c2.7,6.6,3.6,18.6-4,18.6c-7.7,0-122.8,1.5-122.8,1.5s-0.3,2.2,10.4,2.2c10.6,0,109,0,112.8,0
				c3.8,0,10.2-3.1,10.2-11.6C159,89.7,152.5,87.5,152.5,87.5z"/>
			<path class="st6" d="M33.2,107.8c-5.6,0-9-4.6-9-9.8v-2.5c0-4.2,3-7.7,7.1-9h-0.1c-5.6,0-10.2,4.6-10.2,10.2v2.7
				c0,5.6,4.6,10.2,10.2,10.2l37.1-0.4C71,109.3,33.2,107.8,33.2,107.8z"/>
			<path class="st7" d="M159.3,96.5c0-6.2-5.1-11.3-11.3-11.3H30.6c-6.2,0-11.3,5.1-11.3,11.3v3.2c0,6.2,5.1,11.3,11.3,11.3h117.3
				c6.2,0,11.3-5.1,11.3-11.3v-3.2H159.3z M156.9,100.1c0,5.1-4.1,9.2-9.2,9.2H30.2c-5.1,0-9.2-4.1-9.2-9.2v-3.4
				c0-5.1,4.1-9.2,9.2-9.2h117.5c5.1,0,9.2,4.1,9.2,9.2V100.1z"/>
		</g>
	</g>
	<g>
		<path class="st8" d="M151.2,81.1L30,80.4c0,0-5,3.9-6.5,5.6c-2.2,2.3-2,3,3,3.7c21.6,3.2,49,12.7,67,27.3c0.9,0.8,1.9,1.2,3.1,1.2
			c1.6,0,3.5-0.9,5.9-3.1c10.1-9.1,30.5-19.4,47.2-22.6c7-1.3,12-2.7,9.8-5.1C157.1,85.1,151.2,81.1,151.2,81.1z"/>
		<path class="st9" d="M32.2,80.5h-1.9c0,0-5.2,3.5-6.8,5.2c-2.2,2.3-2,3.1,3,3.9c21.6,3.2,49,12.7,67,27.4c1.5,1.2,3.2,1.6,5.4,0.7
			c-1.3,0.4-2.8,0.3-4.2-0.9c-19-14.9-39.2-23.5-66.7-28.7C22.1,87,27.5,84.5,32.2,80.5z"/>
		<path class="st10" d="M160.9,85.8c-2.3-2.5-8.2-6.6-8.5-6.8l-0.6-0.2h-0.3h-0.3h-121h-0.3h-0.3L29,78.9c-0.6,0.4-5.5,3.6-7.2,5.4
			c-0.9,1-2.4,2.6-1.7,4.5c0.7,2,3.1,2.5,6,2.9c18.6,2.8,47,11.5,65.9,26.9c1.4,1.1,2.9,1.7,4.5,1.7c2.3,0,4.6-1.1,7.4-3.6
			c9.2-8.3,29-18.8,46.1-22.1c7.9-1.5,11.1-2.9,11.9-5.3C162.1,88.6,162.3,87.2,160.9,85.8z M30.2,81h120.9c0,0,6,4,8.1,6.4
			c2.2,2.4-2.7,3.7-9.8,5.1c-16.7,3.2-37.1,13.5-47.2,22.6c-2.4,2.1-4.3,3.1-5.9,3.1c-1.1,0-2.1-0.4-3.1-1.2
			c-18-14.7-45.4-24.1-67-27.4c-5-0.7-5.1-1.3-3-3.6C25,84.3,30.2,81,30.2,81z"/>
	</g>
	<g>
		<path class="st11" d="M154.8,69.9h-43.1c0,0,0,3,0,5.9s0,5.3,5.3,5.3c6.6,0,30,0,34.4,0c4.4,0,6.2-1.9,6.2-4.7
			C157.6,73.6,156.8,69.9,154.8,69.9z"/>
		<path class="st11" d="M117.3,81.2h34.4c4.4,0,6.2-2,6.2-4.7c0-2.8-0.7-6.5-2.8-6.5h-0.8c2.9,3,0.8,9.9-2.4,9.9h-27.2
			c-6,0-10.1,0.3-11.8-0.6l-0.8,0.3C112.9,80.6,114.7,81.2,117.3,81.2z"/>
		<g>
			<path class="st11" d="M26.2,69.9h42.5c0,0,0,3,0,5.9s0.6,5.3-4.7,5.3c-6.6,0-30,0-34.4,0s-6.2-1.9-6.2-4.7
				C23.4,73.6,24.1,69.9,26.2,69.9z"/>
			<path class="st11" d="M52.8,69.9h42.5c0,0,0,3,0,5.9s0.6,5.3-4.7,5.3c-6.6,0-30,0-34.4,0S50,79.2,50,76.4
				C50,73.6,50.7,69.9,52.8,69.9z"/>
			<path class="st11" d="M91.7,70h42.5c0,0,0,3,0,5.9s0.6,5.3-4.7,5.3c-6.6,0-30,0-34.4,0s-6.2-1.9-6.2-4.7
				C88.9,73.7,89.7,70,91.7,70z"/>
			<path class="st12" d="M122.2,81H29.6c-4.4,0-6.2-1.9-6.2-4.7c0-2.8,0.7-6.5,2.8-6.5h37V68h-37c-3.6,0-4.9,4-4.9,8.2
				c0,1.6,0.6,6.5,8.4,6.5h92.6V81H122.2z"/>
		</g>
		<path class="st11" d="M140.1,79.8c-3.3,0.3-85.8,0-91.7,0c-8.9,0-20.7,0.6-23.8-0.4l0,0c1,1.1,2.6,1.7,5.2,1.7l110.4,0.1v-1.4
			H140.1z"/>
		<g>
			<path class="st11" d="M67.7,74.2c0-2.3,0.9-3.9,0.9-3.9H26.1c-1.3,0-2.2,1.6-2.6,3.7c0.8,0.2,2.4,0.2,3.4,0.2
				C26.9,74.2,67.7,74.2,67.7,74.2z"/>
		</g>
		<path class="st12" d="M154.8,68.1h-37.5v1.8h37.5c2,0,2.8,3.7,2.8,6.5s-1.8,4.7-6.2,4.7l-34.7,0.1v1.5l34.7,0.2
			c7.8,0,8.4-4.8,8.4-6.5C159.7,72.2,158.4,68.1,154.8,68.1z"/>
		<g>
			<path class="st11" d="M155,70.1H59.5c0,0,0,1.8,0,4h93c2,0,3.5-0.3,4.8-1C156.9,71.5,156.1,70.1,155,70.1z"/>
		</g>
		<path class="st13" d="M111.8,74.2c0.2,0.9,0.2,1.9,0.2,2.6c0-0.9,0-1.8,0-2.6H111.8z"/>
		<path class="st13" d="M70.2,74.2c0,0.5,0,1,0,1.5C70.2,75.2,70.3,74.7,70.2,74.2L70.2,74.2z"/>
	</g>
	<g>
		<path class="st0" d="M27.3,71.2c-3.8,0-6.4-1.1-7.8-3.4c-2-3.3-1.1-8.8,2.7-16.3C26.6,43,44.3,15.1,89.9,15
			c45.8,0.1,63.5,27.9,67.8,36.5c3.8,7.5,4.7,13,2.7,16.3c-1.4,2.3-4,3.4-7.8,3.4C152.6,71.2,27.3,71.2,27.3,71.2z"/>
		<path class="st0" d="M94.8,16.4c37.5,8,51.4,27.4,56.4,45.1c0.5,2.5-0.5,5.6-6.1,5.6H29.2c-6.7,0-9.3-2.5-9.8-5.1
			c-0.8,5.7,2.4,8.3,8,8.3h62.5c0.2,0,0.4,0,0.4,0h62.5c8.3,0,10.5-5.7,4.1-18.1C152.2,43,135.1,18.2,94.8,16.4z"/>
		<path class="st1" d="M158.5,51c-4.4-8.5-23.3-35.9-66.3-37H88c-45.2,1.2-62.4,28.5-66.8,37c-4.1,8-5.1,13.6-2.8,17.3
			c1.6,2.6,4.4,3.9,8.6,3.9h125.3c4.2,0,7.2-1.3,8.8-3.9C163.3,64.7,162.5,59,158.5,51z M152.2,69.9H89.8c0,0-0.1,0-0.4,0H27
			c-8.3,0-10.3-5.6-3.9-18c4.8-9.5,22.2-35.7,66.9-35.8l0,0c43.5,0.1,61.8,26.3,66.6,35.8C162.8,64.3,160.5,69.9,152.2,69.9z"/>
	</g>
	<g>
		<g>
			<path class="st0" d="M65.6,30.8c-1.4,0.9-2,1.9-1.4,2.5c0.7,0.6,2.3-1.1,2.7-1.9C67.2,30.7,66.3,30.3,65.6,30.8z"/>
			<path class="st0" d="M59.4,43.1c-1.2,1.1-1.7,2.2-0.9,2.7s2.1-1.4,2.3-2.3C61.1,42.8,60.1,42.6,59.4,43.1z"/>
			<path class="st0" d="M42.4,43.3c-1.5,0.8-2.2,1.8-1.5,2.4c0.7,0.7,2.4-0.9,2.8-1.7C44,43.3,43.1,42.9,42.4,43.3z"/>
			<path class="st0" d="M72.8,36.8c-1.2,1.1-1.7,2.3-0.9,2.7c0.8,0.5,2.1-1.5,2.3-2.3C74.4,36.4,73.4,36.2,72.8,36.8z"/>
			<path class="st0" d="M78,25.1c-1.3,1-1.9,2.1-1.2,2.6c0.7,0.6,2.2-1.3,2.5-2.1C79.7,24.9,78.7,24.6,78,25.1z"/>
			<path class="st0" d="M53.6,36.5c-1.4,0.9-2,2-1.3,2.6s2.3-1.1,2.6-1.9C55.3,36.4,54.4,36.1,53.6,36.5z"/>
			<path class="st0" d="M84.6,31.1c-0.8,1.4-0.8,2.7,0.1,2.9s1.5-2.1,1.4-2.9C86,30.2,85,30.3,84.6,31.1z"/>
			<path class="st0" d="M81.5,43c-0.8,1.4-0.8,2.7,0.1,2.9s1.5-2.1,1.4-2.9C82.9,42.1,81.9,42.2,81.5,43z"/>
			<path class="st0" d="M92.6,36.9c-0.4,1.6,0,2.8,0.9,2.7s0.8-2.4,0.5-3.2C93.7,35.6,92.8,36,92.6,36.9z"/>
			<path class="st0" d="M92.6,25c-0.4,1.6,0,2.8,0.9,2.7c0.9-0.1,0.8-2.4,0.5-3.2C93.7,23.8,92.8,24.2,92.6,25z"/>
			<path class="st0" d="M110.8,37.4c0.4,1.6,1.3,2.5,2.1,2c0.8-0.5-0.4-2.1-1-2.6C111.3,36.2,110.6,36.6,110.8,37.4z"/>
			<path class="st0" d="M108.3,25.3c0.5,1.6,1.3,2.5,2.1,2c0.8-0.5-0.4-2.1-1-2.6C108.7,24.1,108,24.5,108.3,25.3z"/>
			<path class="st0" d="M117.1,31.9c0.8,1.5,1.8,2.2,2.4,1.5c0.7-0.6-0.8-2-1.5-2.4C117.3,30.6,116.7,31.1,117.1,31.9z"/>
			<path class="st0" d="M122.6,43.9c0.5,1.6,1.4,2.5,2.1,1.9c0.8-0.5-0.4-2.1-1.1-2.6C123,42.7,122.3,43.1,122.6,43.9z"/>
			<path class="st0" d="M137.5,44.1c0.8,1.5,1.8,2.2,2.4,1.5c0.7-0.6-0.8-2-1.5-2.4C137.7,42.8,137.1,43.3,137.5,44.1z"/>
			<path class="st0" d="M133.4,52.2c0.8,1.5,1.8,2.2,2.4,1.5c0.7-0.6-0.8-2-1.5-2.4C133.6,50.9,133,51.4,133.4,52.2z"/>
			<path class="st0" d="M101.2,31.3c-0.2,1.6,0.2,2.8,1.1,2.6s0.5-2,0.1-2.8C102.1,30.3,101.4,30.4,101.2,31.3z"/>
			<path class="st0" d="M102.3,43.1c-0.2,1.6,0.2,2.8,1.1,2.6s0.5-2,0.1-2.8C103.2,42.2,102.4,42.2,102.3,43.1z"/>
			<path class="st0" d="M127.6,37.5c1,1.3,2.1,1.8,2.7,1.1c0.5-0.8-1.3-2.2-2.1-2.4C127.3,35.9,127,36.8,127.6,37.5z"/>
			<path class="st0" d="M73.6,51.4c-1,1.3-1.3,2.5-0.4,2.8s1.8-1.8,1.9-2.6C75.2,50.7,74.2,50.7,73.6,51.4z"/>
			<path class="st0" d="M61.6,51.1c-1.2,1.1-1.6,2.3-0.8,2.8s2-1.5,2.2-2.4C63.2,50.7,62.3,50.5,61.6,51.1z"/>
			<path class="st0" d="M48.7,51.1c-1.3,1-1.9,2.1-1.2,2.6c0.7,0.6,2.2-1.3,2.5-2.1C50.4,50.9,49.4,50.6,48.7,51.1z"/>
			<path class="st0" d="M97.8,51.6c0,1.6,0.6,2.8,1.5,2.5s0.2-2.5-0.2-3.2C98.6,50.1,97.8,50.7,97.8,51.6z"/>
			<path class="st0" d="M122.2,52c0.4,1.6,1.2,2.6,2,2.1s-0.3-2.5-0.9-3.1C122.6,50.4,122,51.1,122.2,52z"/>
			<path class="st0" d="M86.1,51.3c-0.6,1.5-0.5,2.8,0.5,2.8c0.9,0.1,1.2-2.3,1-3.1S86.5,50.5,86.1,51.3z"/>
			<path class="st0" d="M110.9,51.8c0.2,1.6,1,2.6,1.8,2.2c0.8-0.4-0.1-2.1-0.7-2.7C111.5,50.7,110.8,50.9,110.9,51.8z"/>
		</g>
		<g>
			<path class="st14" d="M65.2,30.4c-1.4,0.9-2,1.9-1.4,2.5c0.7,0.6,2.3-1.1,2.7-1.9C66.9,30.3,66,29.9,65.2,30.4z"/>
			<path class="st14" d="M59.1,42.8c-1.2,1.1-1.7,2.2-0.9,2.7s2.1-1.4,2.3-2.3C60.7,42.4,59.8,42.2,59.1,42.8z"/>
			<path class="st14" d="M42,42.9c-1.5,0.8-2.2,1.8-1.5,2.4c0.6,0.7,2.4-0.9,2.8-1.7C43.7,43,42.8,42.5,42,42.9z"/>
			<path class="st14" d="M72.4,36.5c-1.2,1.1-1.7,2.3-0.9,2.7c0.8,0.5,2.1-1.5,2.3-2.3C74.1,36.1,73.1,35.9,72.4,36.5z"/>
			<path class="st14" d="M77.7,24.7c-1.3,1-1.9,2.1-1.2,2.6c0.7,0.6,2.2-1.3,2.5-2.1C79.3,24.5,78.4,24.2,77.7,24.7z"/>
			<path class="st14" d="M53.3,36.2c-1.4,0.9-2,2-1.3,2.6s2.3-1.1,2.6-1.9C55,36.1,54,35.7,53.3,36.2z"/>
			<path class="st14" d="M84.2,30.8c-0.8,1.4-0.8,2.7,0.1,2.9s1.5-2.1,1.4-2.9C85.7,29.9,84.7,30,84.2,30.8z"/>
			<path class="st14" d="M81.1,42.6c-0.8,1.4-0.8,2.7,0.1,2.9s1.5-2.1,1.4-2.9C82.6,41.7,81.6,41.8,81.1,42.6z"/>
			<path class="st14" d="M92.2,36.5c-0.4,1.6,0,2.8,0.9,2.7s0.8-2.4,0.5-3.2C93.3,35.3,92.4,35.7,92.2,36.5z"/>
			<path class="st14" d="M92.2,24.7c-0.4,1.6,0,2.8,0.9,2.7c0.9-0.1,0.8-2.4,0.5-3.2C93.3,23.4,92.4,23.8,92.2,24.7z"/>
			<path class="st14" d="M110.5,37c0.4,1.6,1.3,2.5,2.1,2c0.8-0.5-0.4-2.1-1-2.6C110.9,35.8,110.2,36.2,110.5,37z"/>
			<path class="st14" d="M107.9,24.9c0.5,1.6,1.3,2.5,2.1,2c0.8-0.5-0.4-2.1-1-2.6C108.3,23.7,107.6,24.1,107.9,24.9z"/>
			<path class="st14" d="M116.8,31.5c0.8,1.5,1.8,2.2,2.4,1.5c0.7-0.7-0.8-2-1.5-2.4C117,30.2,116.4,30.7,116.8,31.5z"/>
			<path class="st14" d="M122.2,43.6c0.5,1.6,1.4,2.5,2.1,1.9c0.8-0.5-0.4-2.1-1.1-2.6C122.7,42.3,122,42.7,122.2,43.6z"/>
			<path class="st14" d="M137.1,43.8c0.8,1.5,1.8,2.2,2.4,1.5c0.7-0.7-0.8-2-1.5-2.4C137.3,42.5,136.7,43,137.1,43.8z"/>
			<path class="st14" d="M133.1,51.8c0.8,1.5,1.8,2.2,2.4,1.5c0.7-0.7-0.8-2-1.5-2.4C133.3,50.6,132.7,51,133.1,51.8z"/>
			<path class="st14" d="M100.9,30.9c-0.2,1.6,0.2,2.8,1.1,2.6s0.5-2,0.1-2.8C101.8,30,101,30,100.9,30.9z"/>
			<path class="st14" d="M102,42.8c-0.2,1.6,0.2,2.8,1.1,2.6s0.5-2,0.1-2.8C102.8,41.8,102.1,41.9,102,42.8z"/>
			<path class="st14" d="M127.2,37.2c1,1.3,2.1,1.8,2.7,1.1c0.5-0.8-1.3-2.2-2.1-2.4C127,35.5,126.7,36.5,127.2,37.2z"/>
			<path class="st14" d="M73.3,51c-1,1.3-1.3,2.5-0.4,2.8s1.8-1.8,1.9-2.6C74.8,50.4,73.8,50.3,73.3,51z"/>
			<path class="st14" d="M61.3,50.7c-1.2,1.1-1.6,2.3-0.8,2.8s2-1.5,2.2-2.4C62.9,50.3,61.9,50.1,61.3,50.7z"/>
			<path class="st14" d="M48.3,50.7c-1.3,1-1.9,2.1-1.2,2.6c0.7,0.6,2.2-1.3,2.5-2.1C50,50.5,49.1,50.2,48.3,50.7z"/>
			<path class="st14" d="M97.4,51.3c0,1.6,0.6,2.8,1.5,2.5s0.2-2.5-0.2-3.2C98.2,49.8,97.4,50.4,97.4,51.3z"/>
			<path class="st14" d="M121.8,51.6c0.4,1.6,1.2,2.6,2,2.1s-0.3-2.5-0.9-3.1C122.2,50,121.6,50.8,121.8,51.6z"/>
			<path class="st14" d="M85.8,51c-0.6,1.5-0.5,2.8,0.5,2.8c0.9,0.1,1.2-2.3,1-3.1C87.1,49.9,86.1,50.1,85.8,51z"/>
			<path class="st14" d="M110.5,51.5c0.3,1.6,1,2.6,1.8,2.2c0.8-0.4-0.1-2.1-0.7-2.7C111.1,50.3,110.4,50.6,110.5,51.5z"/>
		</g>
	</g>
</g>
</svg>
