<?xml version="1.0" encoding="utf-8"?>
<!-- Generator: Adobe Illustrator 23.0.3, SVG Export Plug-In . SVG Version: 6.00 Build 0)  -->
<svg version="1.1" id="Слой_1" xmlns="http://www.w3.org/2000/svg" xmlns:xlink="http://www.w3.org/1999/xlink" x="0px" y="0px"
	 viewBox="0 0 176.7 161.3" style="enable-background:new 0 0 176.7 161.3;" xml:space="preserve">
<style type="text/css">
	.st0{fill:#ECBB80;}
	.st1{fill:#725334;}
	.st2{fill:#40A756;}
	.st3{fill:#A6CC84;}
	.st4{fill:#24533D;}
	.st5{fill:#BE242E;}
	.st6{opacity:0.85;fill:#DA7E57;}
	.st7{fill:#672C2D;}
	.st8{fill:#F0CD62;}
	.st9{fill:#F4EF8A;}
	.st10{fill:#BA8335;}
	.st11{fill:#D04943;}
	.st12{fill:#703137;}
	.st13{fill:none;}
	.st14{fill:#FEF7DB;}
</style>
<g>
	<g>
		<path class="st0" d="M146,119.8H27.2c-2.7,0-3.8,0.2-3.1,3.1c3.8,12.8,16.7,16.8,24.2,17.5c8,0.8,38.3,1.4,38.3,1.4
			c0,0,30.9-0.9,38.9-1.7c7.5-0.7,19.7-4.3,23.4-17.1C149.8,120.1,148.7,119.8,146,119.8z"/>
		<g>
			<g>
				<path class="st0" d="M146.4,119.3h-3.9c0,0-7.3,16.4-24.2,17.5c-8.1,0.5-22.4,1.2-34.9,1.2h-0.2c-12.5,0-30.1-0.5-38.1-1.2
					c-4.6-0.4-11.4-2.3-16.8-6.5c5.5,7,14.7,9.7,20.5,10.3c8,0.8,25.7,1.2,38.1,1.2h0.2c12.5,0,30.1-0.5,38.1-1.2
					c7.5-0.7,20.5-5,24.2-17.4C150.2,120.4,149.1,119.3,146.4,119.3z"/>
			</g>
		</g>
		<path class="st0" d="M29.3,119.2h-1.7c-1.3-0.6-4.7,0.9-4,3.7c3.8,12.4,17.7,16.9,25.2,17.6c2.3,0.2,5.4,0.4,8.9,0.6
			c-22.9-2.8-28.2-13.6-29.9-17.3C26.2,120.2,27.6,119.4,29.3,119.2z"/>
		<path class="st1" d="M150.6,118.3c-1.4-1.8-3.8-0.8-4.5-0.8H27.8c-1.4,0-4.2-0.4-5.2,0.8c-1,1.2-1.1,2.3-0.6,4.4
			c3.8,13,16.4,18.6,26.1,19.5c8.1,0.8,25.9,1.2,38.3,1.2h0.2c12.5,0,30.2-0.6,38.3-1.4c9.7-1,22.3-6.2,26.1-19.1
			C151.7,120.6,151.5,119.5,150.6,118.3z M86.6,141C74,141,74,141,86.6,141L86.6,141c-12.6,0-30.2-0.6-38.2-1.4
			c-7.5-0.7-20.5-4-24.2-16.9c-0.7-2.9,0.4-2.9,3.1-2.9H146c2.7,0,3.8,0,3.1,2.9c-3.8,12.8-16.7,16.7-24.2,17.5
			C116.8,141,99.2,141,86.6,141L86.6,141z"/>
	</g>
	<g>
		<path class="st2" d="M28,109.3c-2,2.1-4.4,2-7.4,3.1c-3,1.1-7.2,3.2,1.7,4.5c8.9,1.3,12.3,2,16.8,6.2c4.6,4.2,6.7,5.6,13.1,2
			c6.3-3.6,9-5,14.5-2.6c5.5,2.4,10.5,1.9,11.6,0c1.1-1.9,3-5.6-2-7.6c-5-2-6.6-5.6-6.6-5.6H28z"/>
		<path class="st3" d="M20.7,112.4c-3,1.1-7.2,3.2,1.7,4.5c8.9,1.3,12.3,2,16.8,6.2c1.1,1,2,1.8,2.9,2.4c1.4,0.5,2.9,0.9,4.3,0.7
			c0,0-2.6-0.4-4.8-3.2c-5.1-5.9-7.9-7-16.4-8.1c-3.7-0.5-1.2-1.4,0.8-1.7c2-0.2,3.4-1.5,4.1-3.7c0,0-0.1-0.1-0.4-0.3H28
			C26,111.5,23.7,111.4,20.7,112.4z"/>
		<path class="st2" d="M52.4,112.9c-2,1.6-1.3,5.8,6.7,6.6c7.9,0.8,17.1,1.4,13.8,4.4c5.3,0.1,6.2-1.5,6.2-1.5s-1.4-3.8-10.2-4.2
			C60.1,117.9,50.8,117.3,52.4,112.9z"/>
		<path class="st2" d="M150.1,109.3c7.4,2.1,12,6.4,3.5,8.3c-8.5,2-8.5,1.2-11.9,6c-3.4,4.8-9.7,7-14.1,4.3
			c-4.4-2.7-4.6-5.3-9.9-4.6c-5.3,0.7-21.1-3-12.6-8.5c8.5-5.5,17-5.5,17-5.5H150.1z"/>
		<path class="st2" d="M61.7,109.3c-7.2,1-15,6.9-1.7,7.9c13.3,1,17.8,2.1,19.7,6.2c2,4,5.3,6.5,11.6,3.2c4.9-2.6,5.7-2.5,9.1,0.1
			c3.3,2.6,9.2,3.2,13-0.8c3.9-4,3.7-3.5,10.2-2.6c6.5,0.8,12.9-1.4,12.8-6.2c-0.1-4.8,2-7.7,2-7.7H61.7z"/>
		<path class="st2" d="M138.7,108.8c0,0-0.7,1.3-0.9,1.6c-0.1,0.1-0.4,1.1-0.9,2.4c-0.3,1.2-0.5,2.5-0.5,4.2c0.1,2.1-1.1,3.7-3,4.7
			c-2.7,2.4-11,1.6-11,1.6s0.4-0.1,2.1,2.2c3.8,2.4,7.5,1.4,10.5-0.2c3-1.6,3.9-4.4,3.9-8.8c0-4.3,0.1-3.9,1.5-7.3L138.7,108.8z"/>
		<path class="st2" d="M67.2,113.5c4.5,0.7,11.2-1.6,14.2,1.4C78.4,114.6,70.8,117,67.2,113.5z"/>
		<path class="st3" d="M155.1,112.4c0.8,1.2,1.2,3.3-4.5,4c-7.7,1-9.3,3.5-11.2,6.2c-1.9,2.8-7.5,5.5-10.1,4.9c1,1,5.7,3.3,10.1-1
			c4.3-4.3,4.3-7.9,7.9-7.9s8.5-0.7,10.2-2.4C159.2,114.5,155.1,112.4,155.1,112.4z"/>
		<g>
			<path class="st4" d="M46.3,128.3c-2.9,0-5-1.7-7.8-4.3c-4.4-4-7.6-4.6-16.3-5.9c-4.3-0.6-6.1-1.5-6.3-3c-0.1-1.4,1.2-2.5,4.4-3.6
				c0.9-0.3,1.8-0.6,2.7-0.8c1.8-0.5,3.1-0.8,4.3-2c0.2-0.2,0.5-0.3,0.8-0.3h36.2c0.6,0,1.1,0.5,1.1,1.1c0,0.6-0.5,1.1-1.1,1.1H28.5
				c-1.5,1.4-3.2,1.9-5,2.3c-0.8,0.2-1.6,0.4-2.5,0.7c-1.7,0.6-2.5,1.1-2.8,1.4c0.4,0.2,1.5,0.7,4.3,1.1c8.7,1.3,12.5,2,17.4,6.5
				c4.4,4,6.1,5.1,11.8,1.9c6.2-3.5,9.3-5.3,15.5-2.6c5.5,2.3,9.6,1.5,10.2,0.5c0.1-0.3,0.2-0.3,0.2-0.5c0.3-0.5,0.9-0.8,1.4-0.5
				c0.5,0.3,0.8,0.9,0.5,1.4l-0.1,0.2c0,0.1-0.1,0.2-0.2,0.4c-1.5,2.7-7.2,2.9-12.9,0.5c-4.9-2.1-7.2-1.1-13.6,2.5
				C50.1,127.6,48.1,128.3,46.3,128.3z"/>
		</g>
		<g>
			<path class="st4" d="M132,130.2c-1.7,0-3.4-0.4-4.9-1.3c-1.5-0.9-2.5-1.8-3.4-2.5c-1.8-1.5-2.7-2.3-5.9-1.9
				c-0.9,0.1-1.7,0.2-2.4,1c-0.4,0.4-1.1,0.5-1.5,0c-0.4-0.4-0.5-1.1,0-1.5c1.3-1.3,2.7-1.5,3.6-1.6c4.3-0.6,5.8,0.8,7.7,2.4
				c0.8,0.7,1.8,1.5,3.1,2.3c3.8,2.3,9.5,0.5,12.7-4c3-4.2,3.6-4.5,9-5.6c1-0.2,2.1-0.5,3.5-0.8c2.9-0.7,3.7-1.5,3.7-1.9
				c0-0.9-2.2-2.8-7.2-4.3h-27.8c-0.6,0-1.1-0.5-1.1-1.1c0-0.6,0.5-1.1,1.1-1.1h28c0.1,0,0.2,0,0.3,0c2.1,0.6,9,2.9,8.9,6.4
				c0,1.8-1.9,3.2-5.4,4c-1.4,0.3-2.6,0.6-3.5,0.8c-5,1.1-5.1,1.1-7.7,4.7C140,128,135.8,130.2,132,130.2z"/>
		</g>
		<path class="st2" d="M106.9,121.3c-4.5,1.1-7.1,4.5-7.1,4.5c-4-2-3.5-2.3-3.5-2.3S103.1,118.7,106.9,121.3z"/>
		<path class="st3" d="M101.1,125.9c2.9,1.3,6.8,1.6,9.7-1.4c2.9-3,4.1-5.4,10.9-4.3c6.8,1.1,13.2-0.4,14.3-5.4
			c0.4,4.6-1.2,7.9-7,8.5c-5.8,0.5-10.2-1.4-12.3,0.3C114.4,125.1,107.9,133.2,101.1,125.9z"/>
		<path class="st3" d="M55.3,112.6c-1,1.2-0.9,2.4,4.9,2.8s16.6,0.8,19.9,4.2c3.3,3.4,4.7,8.5,10.1,5.5c5.4-3,7.8-3.2,7.8-3.2
			s-4.3,4.1-9,5c-4.6,0.9-7.4-1-9.8-4.2s-6.8-4.5-9.3-4.6c-2.5-0.1-13.5-1-15.8-2.4C51.7,114.3,55.3,112.6,55.3,112.6z"/>
		<g>
			<path class="st4" d="M106.6,129.9c-2.5,0-5-0.8-6.9-2.3c-1.5-1.2-2.4-1.8-3.3-1.8c-1,0-2.4,0.6-4.6,1.8
				c-5.9,3.1-10.4,1.8-13.1-3.7c-1.7-3.4-5.7-4.7-18.9-5.6c-5.5-0.4-8.1-1.7-8.2-3.9c-0.1-3.1,5.8-5.6,9.9-6.1l78.8,0l-1.2,1.7
				c0,0-1.9,2.8-1.8,7.1c0,1.6-0.6,3.1-1.7,4.3c-2,2-5.4,3.2-9.5,3.2l0,0c-0.9,0-1.8-0.1-2.8-0.2c-0.8-0.1-1.5-0.2-2.1-0.3
				c-1.3-0.2-2.2-0.3-2.9-0.3c-1.3,0-1.9,0.4-4.3,2.9C112.2,128.7,109.5,129.9,106.6,129.9z M96.4,123.6c1.7,0,3,0.9,4.7,2.2
				c1.5,1.2,3.5,1.9,5.5,1.9c1.6,0,4-0.4,6-2.6c2.3-2.5,3.5-3.6,5.8-3.6c0.9,0,1.9,0.1,3.2,0.3c0.6,0.1,1.3,0.2,2,0.3
				c4.3,0.6,8.6-0.4,10.5-2.4c0.8-0.8,1.1-1.7,1.1-2.7c-0.1-2.9,0.6-5.2,1.3-6.7H61.7c-4.5,0.6-7.9,3-7.9,3.9c0,0.3,1.2,1.4,6.2,1.8
				c13.2,0.9,18.3,2.1,20.6,6.8c2.2,4.5,5.3,5.2,10.1,2.7C93.4,124.3,94.9,123.6,96.4,123.6z"/>
		</g>
		<g>
			<path class="st4" d="M91.5,127.6c-0.4,0-0.8-0.2-1-0.6c-0.3-0.5,0-1.2,0.5-1.4c1.1-0.5,2.3-1.4,3.6-2.2c3.5-2.4,7.4-5.1,11.9-3.6
				c0.6,0.2,0.9,0.8,0.7,1.4c-0.2,0.6-0.8,0.9-1.4,0.7c-3.5-1.1-6.8,1.1-10,3.4c-1.3,0.9-2.6,1.8-3.9,2.4
				C91.8,127.6,91.6,127.6,91.5,127.6z"/>
		</g>
		<g>
			<g>
				<path class="st2" d="M115.7,109.3H72.6c7,3.6,13.5,7.8,19.1,12.5c2.3,1.9,4.9,1.9,9-1.9C104.5,116.5,109.8,112.8,115.7,109.3z"
					/>
			</g>
		</g>
	</g>
	<g>
		<g>
			<path class="st5" d="M28.2,109.6c-5.6,0-10.2-4.6-10.2-10.2v-2.7c0-5.6,4.6-10.2,10.2-10.2h117.7c5.6,0,10.2,4.6,10.2,10.2v2.7
				c0,5.6-4.6,10.2-10.2,10.2H28.2z"/>
			<path class="st5" d="M149.5,87.5c2.7,6.6,3.6,18.6-4,18.6c-7.7,0-122.8,1.5-122.8,1.5s-0.3,2.2,10.4,2.2c10.6,0,109,0,112.8,0
				c3.8,0,10.2-3.1,10.2-11.6C156,89.7,149.5,87.5,149.5,87.5z"/>
			<path class="st6" d="M30.2,107.8c-5.6,0-9-4.6-9-9.8v-2.5c0-4.2,3-7.7,7.1-9h-0.1c-5.6,0-10.2,4.6-10.2,10.2v2.7
				c0,5.6,4.6,10.2,10.2,10.2l37.1-0.4C68,109.3,30.2,107.8,30.2,107.8z"/>
			<path class="st7" d="M156.3,96.5c0-6.2-5.1-11.3-11.3-11.3H27.6c-6.2,0-11.3,5.1-11.3,11.3v3.2c0,6.2,5.1,11.3,11.3,11.3h117.3
				c6.2,0,11.3-5.1,11.3-11.3V96.5z M153.9,100.1c0,5.1-4.1,9.2-9.2,9.2H27.2c-5.1,0-9.2-4.1-9.2-9.2v-3.4c0-5.1,4.1-9.2,9.2-9.2
				h117.5c5.1,0,9.2,4.1,9.2,9.2V100.1z"/>
		</g>
	</g>
	<g>
		<path class="st8" d="M148.2,81.1L27,80.4c0,0-5,3.9-6.5,5.6c-2.2,2.3-2,3,3,3.7c21.6,3.2,49,12.7,67,27.3c0.9,0.8,1.9,1.2,3.1,1.2
			c1.6,0,3.5-0.9,5.9-3.1c10.1-9.1,30.5-19.4,47.2-22.6c7-1.3,12-2.7,9.8-5.1C154.1,85.1,148.2,81.1,148.2,81.1z"/>
		<path class="st9" d="M29.2,80.5h-1.9c0,0-5.2,3.5-6.8,5.2c-2.2,2.3-2,3.1,3,3.9c21.6,3.2,49,12.7,67,27.4c1.5,1.2,3.2,1.6,5.4,0.7
			c-1.3,0.4-2.8,0.3-4.2-0.9c-19-14.9-39.2-23.5-66.7-28.7C19.1,87,24.5,84.5,29.2,80.5z"/>
		<path class="st10" d="M157.9,85.8c-2.3-2.5-8.2-6.6-8.5-6.8l-0.6-0.2h-0.3h-0.3H27.2h-0.3h-0.3L26,78.9c-0.6,0.4-5.5,3.6-7.2,5.4
			c-0.9,1-2.4,2.6-1.7,4.5c0.7,2,3.1,2.5,6,2.9c18.6,2.8,47,11.5,65.9,26.9c1.4,1.1,2.9,1.7,4.5,1.7c2.3,0,4.6-1.1,7.4-3.6
			c9.2-8.3,29-18.8,46.1-22.1c7.9-1.5,11.1-2.9,11.9-5.3C159.1,88.6,159.3,87.2,157.9,85.8z M27.2,81h120.9c0,0,6,4,8.1,6.4
			c2.2,2.4-2.7,3.7-9.8,5.1c-16.7,3.2-37.1,13.5-47.2,22.6c-2.4,2.1-4.3,3.1-5.9,3.1c-1.1,0-2.1-0.4-3.1-1.2
			c-18-14.7-45.4-24.1-67-27.4c-5-0.7-5.1-1.3-3-3.6C22,84.3,27.2,81,27.2,81z"/>
	</g>
	<g>
		<path class="st11" d="M151.8,69.9h-43.1c0,0,0,3,0,5.9c0,2.9,0,5.3,5.3,5.3c6.6,0,30,0,34.4,0c4.4,0,6.2-1.9,6.2-4.7
			C154.6,73.6,153.8,69.9,151.8,69.9z"/>
		<path class="st11" d="M114.3,81.2h34.4c4.4,0,6.2-2,6.2-4.7c0-2.8-0.7-6.5-2.8-6.5h-0.8c2.9,3,0.8,9.9-2.4,9.9h-27.2
			c-6,0-10.1,0.3-11.8-0.6l-0.8,0.3C109.9,80.6,111.7,81.2,114.3,81.2z"/>
		<g>
			<path class="st11" d="M23.2,69.9h42.5c0,0,0,3,0,5.9c0,2.9,0.6,5.3-4.7,5.3c-6.6,0-30,0-34.4,0c-4.4,0-6.2-1.9-6.2-4.7
				C20.4,73.6,21.1,69.9,23.2,69.9z"/>
			<path class="st11" d="M49.8,69.9h42.5c0,0,0,3,0,5.9c0,2.9,0.6,5.3-4.7,5.3c-6.6,0-30,0-34.4,0c-4.4,0-6.2-1.9-6.2-4.7
				C47,73.6,47.7,69.9,49.8,69.9z"/>
			<path class="st11" d="M88.7,70h42.5c0,0,0,3,0,5.9c0,2.9,0.6,5.3-4.7,5.3c-6.6,0-30,0-34.4,0c-4.4,0-6.2-1.9-6.2-4.7
				C85.9,73.7,86.7,70,88.7,70z"/>
		</g>
		<path class="st11" d="M137.1,79.8c-3.3,0.3-85.8,0-91.7,0c-8.9,0-20.7,0.6-23.8-0.4c0,0,0,0,0,0c1,1.1,2.6,1.7,5.2,1.7l110.4,0.1
			V79.8z"/>
		<g>
			<path class="st11" d="M64.7,74.2c0-2.3,0.9-3.9,0.9-3.9H23.1c-1.3,0-2.2,1.6-2.6,3.7c0.8,0.2,2.4,0.2,3.4,0.2H64.7z"/>
		</g>
		<path class="st12" d="M151.8,68.1h-37.5v1.8h37.5c2,0,2.8,3.7,2.8,6.5c0,2.8-1.8,4.7-6.2,4.7h-29.1h-4.9H26.6
			c-4.4,0-6.2-1.9-6.2-4.7c0-2.8,0.7-6.5,2.8-6.5h37v-1.8h-37c-3.6,0-4.9,4-4.9,8.2c0,1.6,0.6,6.5,8.4,6.5h87.7h4.9h29.1
			c7.8,0,8.4-4.8,8.4-6.5C156.7,72.2,155.4,68.1,151.8,68.1z"/>
		<g>
			<path class="st11" d="M152,70.1H56.5c0,0,0,1.8,0,4h93c2,0,3.5-0.3,4.8-1C153.9,71.5,153.1,70.1,152,70.1z"/>
		</g>
		<path class="st13" d="M108.8,74.2c0.2,0.9,0.2,1.9,0.2,2.6c0-0.9,0-1.8,0-2.6H108.8z"/>
		<path class="st13" d="M67.2,74.2c0,0.5,0,1,0,1.5C67.2,75.2,67.3,74.7,67.2,74.2L67.2,74.2z"/>
	</g>
	<g>
		<path class="st0" d="M24.3,71.2c-3.8,0-6.4-1.1-7.8-3.4c-2-3.3-1.1-8.8,2.7-16.3C23.6,43,41.3,15.1,86.9,15
			c45.8,0.1,63.5,27.9,67.8,36.5c3.8,7.5,4.7,13,2.7,16.3c-1.4,2.3-4,3.4-7.8,3.4H24.3z"/>
		<path class="st0" d="M91.8,16.4c37.5,8,51.4,27.4,56.4,45.1c0.5,2.5-0.5,5.6-6.1,5.6H26.2c-6.7,0-9.3-2.5-9.8-5.1
			c-0.8,5.7,2.4,8.3,8,8.3h62.5c0.2,0,0.4,0,0.4,0h62.5c8.3,0,10.5-5.7,4.1-18.1C149.2,43,132.1,18.2,91.8,16.4z"/>
		<path class="st1" d="M155.5,51c-4.4-8.5-23.3-35.9-66.3-37H85c-45.2,1.2-62.4,28.5-66.8,37c-4.1,8-5.1,13.6-2.8,17.3
			c1.6,2.6,4.4,3.9,8.6,3.9h125.3c4.2,0,7.2-1.3,8.8-3.9C160.3,64.7,159.5,59,155.5,51z M149.2,69.9H86.8c0,0-0.1,0-0.4,0H24
			c-8.3,0-10.3-5.6-3.9-18c4.8-9.5,22.2-35.7,66.9-35.8l0,0c43.5,0.1,61.8,26.3,66.6,35.8C159.8,64.3,157.5,69.9,149.2,69.9z"/>
	</g>
	<g>
		<g>
			<path class="st0" d="M62.6,30.8c-1.4,0.9-2,1.9-1.4,2.5c0.7,0.6,2.3-1.1,2.7-1.9C64.2,30.7,63.3,30.3,62.6,30.8z"/>
			<path class="st0" d="M56.4,43.1c-1.2,1.1-1.7,2.2-0.9,2.7c0.8,0.5,2.1-1.4,2.3-2.3C58.1,42.8,57.1,42.6,56.4,43.1z"/>
			<path class="st0" d="M39.4,43.3c-1.5,0.8-2.2,1.8-1.5,2.4c0.7,0.7,2.4-0.9,2.8-1.7C41,43.3,40.1,42.9,39.4,43.3z"/>
			<path class="st0" d="M69.8,36.8c-1.2,1.1-1.7,2.3-0.9,2.7c0.8,0.5,2.1-1.5,2.3-2.3C71.4,36.4,70.4,36.2,69.8,36.8z"/>
			<path class="st0" d="M75,25.1c-1.3,1-1.9,2.1-1.2,2.6c0.7,0.6,2.2-1.3,2.5-2.1C76.7,24.9,75.7,24.6,75,25.1z"/>
			<path class="st0" d="M50.6,36.5c-1.4,0.9-2,2-1.3,2.6c0.7,0.6,2.3-1.1,2.6-1.9C52.3,36.4,51.4,36.1,50.6,36.5z"/>
			<path class="st0" d="M81.6,31.1c-0.8,1.4-0.8,2.7,0.1,2.9c0.9,0.2,1.5-2.1,1.4-2.9C83,30.2,82,30.3,81.6,31.1z"/>
			<path class="st0" d="M78.5,43c-0.8,1.4-0.8,2.7,0.1,2.9c0.9,0.2,1.5-2.1,1.4-2.9C79.9,42.1,78.9,42.2,78.5,43z"/>
			<path class="st0" d="M89.6,36.9c-0.4,1.6,0,2.8,0.9,2.7c0.9-0.1,0.8-2.4,0.5-3.2C90.7,35.6,89.8,36,89.6,36.9z"/>
			<path class="st0" d="M89.6,25c-0.4,1.6,0,2.8,0.9,2.7c0.9-0.1,0.8-2.4,0.5-3.2C90.7,23.8,89.8,24.2,89.6,25z"/>
			<path class="st0" d="M107.8,37.4c0.4,1.6,1.3,2.5,2.1,2c0.8-0.5-0.4-2.1-1-2.6C108.3,36.2,107.6,36.6,107.8,37.4z"/>
			<path class="st0" d="M105.3,25.3c0.5,1.6,1.3,2.5,2.1,2c0.8-0.5-0.4-2.1-1-2.6C105.7,24.1,105,24.5,105.3,25.3z"/>
			<path class="st0" d="M114.1,31.9c0.8,1.5,1.8,2.2,2.4,1.5c0.7-0.6-0.8-2-1.5-2.4C114.3,30.6,113.7,31.1,114.1,31.9z"/>
			<path class="st0" d="M119.6,43.9c0.5,1.6,1.4,2.5,2.1,1.9c0.8-0.5-0.4-2.1-1.1-2.6C120,42.7,119.3,43.1,119.6,43.9z"/>
			<path class="st0" d="M134.5,44.1c0.8,1.5,1.8,2.2,2.4,1.5c0.7-0.6-0.8-2-1.5-2.4C134.7,42.8,134.1,43.3,134.5,44.1z"/>
			<path class="st0" d="M130.4,52.2c0.8,1.5,1.8,2.2,2.4,1.5c0.7-0.6-0.8-2-1.5-2.4C130.6,50.9,130,51.4,130.4,52.2z"/>
			<path class="st0" d="M98.2,31.3c-0.2,1.6,0.2,2.8,1.1,2.6c0.9-0.2,0.5-2,0.1-2.8C99.1,30.3,98.4,30.4,98.2,31.3z"/>
			<path class="st0" d="M99.3,43.1c-0.2,1.6,0.2,2.8,1.1,2.6c0.9-0.2,0.5-2,0.1-2.8C100.2,42.2,99.4,42.2,99.3,43.1z"/>
			<path class="st0" d="M124.6,37.5c1,1.3,2.1,1.8,2.7,1.1c0.5-0.8-1.3-2.2-2.1-2.4C124.3,35.9,124,36.8,124.6,37.5z"/>
			<path class="st0" d="M70.6,51.4c-1,1.3-1.3,2.5-0.4,2.8c0.9,0.3,1.8-1.8,1.9-2.6C72.2,50.7,71.2,50.7,70.6,51.4z"/>
			<path class="st0" d="M58.6,51.1c-1.2,1.1-1.6,2.3-0.8,2.8c0.8,0.5,2-1.5,2.2-2.4C60.2,50.7,59.3,50.5,58.6,51.1z"/>
			<path class="st0" d="M45.7,51.1c-1.3,1-1.9,2.1-1.2,2.6c0.7,0.6,2.2-1.3,2.5-2.1C47.4,50.9,46.4,50.6,45.7,51.1z"/>
			<path class="st0" d="M94.8,51.6c0,1.6,0.6,2.8,1.5,2.5c0.9-0.3,0.2-2.5-0.2-3.2C95.6,50.1,94.8,50.7,94.8,51.6z"/>
			<path class="st0" d="M119.2,52c0.4,1.6,1.2,2.6,2,2.1c0.8-0.5-0.3-2.5-0.9-3.1C119.6,50.4,119,51.1,119.2,52z"/>
			<path class="st0" d="M83.1,51.3c-0.6,1.5-0.5,2.8,0.5,2.8c0.9,0.1,1.2-2.3,1-3.1C84.4,50.2,83.5,50.5,83.1,51.3z"/>
			<path class="st0" d="M107.9,51.8c0.2,1.6,1,2.6,1.8,2.2c0.8-0.4-0.1-2.1-0.7-2.7C108.5,50.7,107.8,50.9,107.9,51.8z"/>
		</g>
		<g>
			<path class="st14" d="M62.2,30.4c-1.4,0.9-2,1.9-1.4,2.5c0.7,0.6,2.3-1.1,2.7-1.9C63.9,30.3,63,29.9,62.2,30.4z"/>
			<path class="st14" d="M56.1,42.8c-1.2,1.1-1.7,2.2-0.9,2.7c0.8,0.5,2.1-1.4,2.3-2.3C57.7,42.4,56.8,42.2,56.1,42.8z"/>
			<path class="st14" d="M39,42.9c-1.5,0.8-2.2,1.8-1.5,2.4c0.6,0.7,2.4-0.9,2.8-1.7C40.7,43,39.8,42.5,39,42.9z"/>
			<path class="st14" d="M69.4,36.5c-1.2,1.1-1.7,2.3-0.9,2.7c0.8,0.5,2.1-1.5,2.3-2.3C71.1,36.1,70.1,35.9,69.4,36.5z"/>
			<path class="st14" d="M74.7,24.7c-1.3,1-1.9,2.1-1.2,2.6c0.7,0.6,2.2-1.3,2.5-2.1C76.3,24.5,75.4,24.2,74.7,24.7z"/>
			<path class="st14" d="M50.3,36.2c-1.4,0.9-2,2-1.3,2.6c0.7,0.6,2.3-1.1,2.6-1.9C52,36.1,51,35.7,50.3,36.2z"/>
			<path class="st14" d="M81.2,30.8c-0.8,1.4-0.8,2.7,0.1,2.9c0.9,0.2,1.5-2.1,1.4-2.9C82.7,29.9,81.7,30,81.2,30.8z"/>
			<path class="st14" d="M78.1,42.6c-0.8,1.4-0.8,2.7,0.1,2.9c0.9,0.2,1.5-2.1,1.4-2.9C79.6,41.7,78.6,41.8,78.1,42.6z"/>
			<path class="st14" d="M89.2,36.5c-0.4,1.6,0,2.8,0.9,2.7c0.9-0.1,0.8-2.4,0.5-3.2C90.3,35.3,89.4,35.7,89.2,36.5z"/>
			<path class="st14" d="M89.2,24.7c-0.4,1.6,0,2.8,0.9,2.7c0.9-0.1,0.8-2.4,0.5-3.2C90.3,23.4,89.4,23.8,89.2,24.7z"/>
			<path class="st14" d="M107.5,37c0.4,1.6,1.3,2.5,2.1,2c0.8-0.5-0.4-2.1-1-2.6C107.9,35.8,107.2,36.2,107.5,37z"/>
			<path class="st14" d="M104.9,24.9c0.5,1.6,1.3,2.5,2.1,2c0.8-0.5-0.4-2.1-1-2.6C105.3,23.7,104.6,24.1,104.9,24.9z"/>
			<path class="st14" d="M113.8,31.5c0.8,1.5,1.8,2.2,2.4,1.5c0.7-0.7-0.8-2-1.5-2.4C114,30.2,113.4,30.7,113.8,31.5z"/>
			<path class="st14" d="M119.2,43.6c0.5,1.6,1.4,2.5,2.1,1.9c0.8-0.5-0.4-2.1-1.1-2.6C119.7,42.3,119,42.7,119.2,43.6z"/>
			<path class="st14" d="M134.1,43.8c0.8,1.5,1.8,2.2,2.4,1.5c0.7-0.7-0.8-2-1.5-2.4C134.3,42.5,133.7,43,134.1,43.8z"/>
			<path class="st14" d="M130.1,51.8c0.8,1.5,1.8,2.2,2.4,1.5c0.7-0.7-0.8-2-1.5-2.4C130.3,50.6,129.7,51,130.1,51.8z"/>
			<path class="st14" d="M97.9,30.9c-0.2,1.6,0.2,2.8,1.1,2.6c0.9-0.2,0.5-2,0.1-2.8C98.8,30,98,30,97.9,30.9z"/>
			<path class="st14" d="M99,42.8c-0.2,1.6,0.2,2.8,1.1,2.6c0.9-0.2,0.5-2,0.1-2.8C99.8,41.8,99.1,41.9,99,42.8z"/>
			<path class="st14" d="M124.2,37.2c1,1.3,2.1,1.8,2.7,1.1c0.5-0.8-1.3-2.2-2.1-2.4C124,35.5,123.7,36.5,124.2,37.2z"/>
			<path class="st14" d="M70.3,51c-1,1.3-1.3,2.5-0.4,2.8c0.9,0.3,1.8-1.8,1.9-2.6C71.8,50.4,70.8,50.3,70.3,51z"/>
			<path class="st14" d="M58.3,50.7c-1.2,1.1-1.6,2.3-0.8,2.8c0.8,0.5,2-1.5,2.2-2.4C59.9,50.3,58.9,50.1,58.3,50.7z"/>
			<path class="st14" d="M45.3,50.7c-1.3,1-1.9,2.1-1.2,2.6c0.7,0.6,2.2-1.3,2.5-2.1C47,50.5,46.1,50.2,45.3,50.7z"/>
			<path class="st14" d="M94.4,51.3c0,1.6,0.6,2.8,1.5,2.5c0.9-0.3,0.2-2.5-0.2-3.2C95.2,49.8,94.4,50.4,94.4,51.3z"/>
			<path class="st14" d="M118.8,51.6c0.4,1.6,1.2,2.6,2,2.1c0.8-0.5-0.3-2.5-0.9-3.1C119.2,50,118.6,50.8,118.8,51.6z"/>
			<path class="st14" d="M82.8,51c-0.6,1.5-0.5,2.8,0.5,2.8c0.9,0.1,1.2-2.3,1-3.1C84.1,49.9,83.1,50.1,82.8,51z"/>
			<path class="st14" d="M107.5,51.5c0.3,1.6,1,2.6,1.8,2.2c0.8-0.4-0.1-2.1-0.7-2.7C108.1,50.3,107.4,50.6,107.5,51.5z"/>
		</g>
	</g>
</g>
</svg>
